<svg width="1080" height="1080" viewBox="0 0 1080 1080" fill="none" xmlns="http://www.w3.org/2000/svg">
<rect x="10" y="10" width="1060" height="1060" rx="90" stroke="#78716C" stroke-width="20"/>
<path d="M198.68 654.3C159.107 654.3 129.25 644.583 109.11 625.15C88.97 605.363 81.55 578.687 86.85 545.12H153.1C150.273 561.02 153.807 573.563 163.7 582.75C173.947 591.583 188.963 596 208.75 596C227.83 596 243.377 591.583 255.39 582.75C267.403 573.917 274.823 561.727 277.65 546.18C279.77 532.047 277.827 520.21 271.82 510.67C265.813 500.777 256.45 494.063 243.73 490.53L200.8 478.34C171.827 470.213 150.45 456.257 136.67 436.47C123.243 416.33 118.473 392.48 122.36 364.92C125.893 343.013 133.843 323.933 146.21 307.68C158.93 291.427 175.007 278.883 194.44 270.05C214.227 261.217 236.487 256.8 261.22 256.8C298.673 256.8 326.763 266.517 345.49 285.95C364.57 305.03 371.637 330.823 366.69 363.33H300.44C302.913 348.137 299.91 336.3 291.43 327.82C282.95 318.987 269.7 314.57 251.68 314.57C234.367 314.57 220.233 318.633 209.28 326.76C198.327 334.887 191.79 346.37 189.67 361.21C187.197 374.99 188.787 386.827 194.44 396.72C200.093 406.613 209.28 413.327 222 416.86L265.99 429.58C295.317 437.707 316.693 451.663 330.12 471.45C343.9 491.237 348.493 515.263 343.9 543.53C340.367 565.79 331.887 585.223 318.46 601.83C305.387 618.437 288.603 631.333 268.11 640.52C247.617 649.707 224.473 654.3 198.68 654.3ZM398.283 649L459.763 262.1H578.483C615.936 262.1 644.203 271.11 663.283 289.13C682.363 306.797 689.43 331 684.483 361.74C682.01 379.053 675.826 394.07 665.933 406.79C656.04 419.51 643.85 429.403 629.363 436.47C614.876 443.537 599.153 447.07 582.193 447.07V444.95C600.92 444.597 616.996 448.13 630.423 455.55C643.85 462.617 653.743 473.217 660.103 487.35C666.816 501.483 668.406 518.62 664.873 538.76C661.34 561.02 653.213 580.453 640.493 597.06C627.773 613.667 611.343 626.563 591.203 635.75C571.416 644.583 548.626 649 522.833 649H398.283ZM471.423 593.88H527.603C547.036 593.88 563.113 588.757 575.833 578.51C588.553 567.91 596.326 553.6 599.153 535.58C601.98 517.56 598.623 503.073 589.083 492.12C579.896 480.813 565.586 475.16 546.153 475.16H489.973L471.423 593.88ZM498.453 421.63H551.983C569.65 421.63 584.136 417.037 595.443 407.85C607.103 398.31 614.346 385.413 617.173 369.16C619.646 352.907 616.466 340.187 607.633 331C599.153 321.813 586.08 317.22 568.413 317.22H514.883L498.453 421.63ZM715.546 649L777.026 262.1H843.276L818.366 418.45H862.886L961.466 262.1H1034.08L916.416 450.78L976.836 649H905.286L856.526 478.87H808.826L781.796 649H715.546Z" fill="#78716C"/>
<path d="M76.384 845.64C71.6053 845.64 68 844.467 65.568 842.12C63.136 839.731 62.24 836.509 62.88 832.456H70.88C70.5387 834.376 70.9653 835.891 72.16 837C73.3973 838.067 75.2107 838.6 77.6 838.6C79.904 838.6 81.7813 838.067 83.232 837C84.6827 835.933 85.5787 834.461 85.92 832.584C86.176 830.877 85.9413 829.448 85.216 828.296C84.4907 827.101 83.36 826.291 81.824 825.864L76.64 824.392C73.1413 823.411 70.56 821.725 68.896 819.336C67.2747 816.904 66.6987 814.024 67.168 810.696C67.5947 808.051 68.5547 805.747 70.048 803.784C71.584 801.821 73.5253 800.307 75.872 799.24C78.2613 798.173 80.9493 797.64 83.936 797.64C88.4587 797.64 91.8507 798.813 94.112 801.16C96.416 803.464 97.2693 806.579 96.672 810.504H88.672C88.9707 808.669 88.608 807.24 87.584 806.216C86.56 805.149 84.96 804.616 82.784 804.616C80.6933 804.616 78.9867 805.107 77.664 806.088C76.3413 807.069 75.552 808.456 75.296 810.248C74.9973 811.912 75.1893 813.341 75.872 814.536C76.5547 815.731 77.664 816.541 79.2 816.968L84.512 818.504C88.0533 819.485 90.6347 821.171 92.256 823.56C93.92 825.949 94.4747 828.851 93.92 832.264C93.4933 834.952 92.4693 837.299 90.848 839.304C89.2693 841.309 87.2427 842.867 84.768 843.976C82.2933 845.085 79.4987 845.64 76.384 845.64ZM100.487 845L107.911 798.28H115.911L114.055 809.8L112.775 816.52H114.951L112.519 818.376C112.988 815.475 114.183 813.213 116.103 811.592C118.066 809.971 120.519 809.16 123.463 809.16C126.919 809.16 129.5 810.312 131.207 812.616C132.914 814.92 133.447 818.013 132.807 821.896L129.159 845H121.159L124.679 822.728C125.02 820.595 124.722 818.952 123.783 817.8C122.844 816.648 121.394 816.072 119.431 816.072C117.426 816.072 115.762 816.669 114.439 817.864C113.159 819.059 112.327 820.765 111.943 822.984L108.487 845H100.487ZM150.062 845.64C146.521 845.64 143.875 844.424 142.126 841.992C140.419 839.56 139.907 836.296 140.59 832.2L142.062 822.664C142.531 819.891 143.406 817.501 144.686 815.496C145.966 813.491 147.566 811.933 149.486 810.824C151.406 809.715 153.539 809.16 155.886 809.16C158.787 809.16 160.942 809.992 162.35 811.656C163.801 813.277 164.291 815.517 163.822 818.376L162.35 816.52H164.142L165.038 809.8H173.038L167.47 845H159.598L160.686 838.28H158.958L161.006 836.424C160.537 839.283 159.321 841.544 157.358 843.208C155.395 844.829 152.963 845.64 150.062 845.64ZM154.03 838.728C156.035 838.728 157.699 838.131 159.022 836.936C160.345 835.699 161.177 833.992 161.518 831.816L162.926 822.984C163.31 820.808 163.011 819.123 162.03 817.928C161.049 816.691 159.555 816.072 157.55 816.072C155.502 816.072 153.817 816.669 152.494 817.864C151.214 819.059 150.403 820.765 150.062 822.984L148.654 831.816C148.27 834.035 148.547 835.741 149.486 836.936C150.425 838.131 151.939 838.728 154.03 838.728ZM177.045 845L178.197 837.704H190.485L193.813 817.032H183.061L184.213 809.8H202.517L198.165 837.704H209.045L207.893 845H177.045ZM199.189 803.912C197.568 803.912 196.352 803.507 195.541 802.696C194.73 801.843 194.432 800.712 194.645 799.304C194.901 797.896 195.562 796.787 196.629 795.976C197.696 795.123 199.04 794.696 200.661 794.696C202.24 794.696 203.434 795.123 204.245 795.976C205.098 796.787 205.397 797.896 205.141 799.304C204.928 800.712 204.288 801.843 203.221 802.696C202.154 803.507 200.81 803.912 199.189 803.912ZM215.804 845L223.228 798.28H231.228L227.196 823.624H232.316L243.068 809.8H252.22L238.844 827.144L246.844 845H238.012L231.676 830.408H226.108L223.804 845H215.804ZM292.362 845L299.786 798.28H314.122C318.645 798.28 322.058 799.368 324.362 801.544C326.666 803.677 327.519 806.6 326.922 810.312C326.623 812.403 325.877 814.216 324.682 815.752C323.487 817.288 322.015 818.483 320.266 819.336C318.517 820.189 316.618 820.616 314.57 820.616V820.36C316.831 820.317 318.773 820.744 320.394 821.64C322.015 822.493 323.21 823.773 323.978 825.48C324.789 827.187 324.981 829.256 324.554 831.688C324.127 834.376 323.146 836.723 321.61 838.728C320.074 840.733 318.09 842.291 315.658 843.4C313.269 844.467 310.517 845 307.402 845H292.362ZM301.194 838.344H307.978C310.325 838.344 312.266 837.725 313.802 836.488C315.338 835.208 316.277 833.48 316.618 831.304C316.959 829.128 316.554 827.379 315.402 826.056C314.293 824.691 312.565 824.008 310.218 824.008H303.434L301.194 838.344ZM304.458 817.544H310.922C313.055 817.544 314.805 816.989 316.17 815.88C317.578 814.728 318.453 813.171 318.794 811.208C319.093 809.245 318.709 807.709 317.642 806.6C316.618 805.491 315.039 804.936 312.906 804.936H306.442L304.458 817.544ZM341.937 845.64C338.396 845.64 335.75 844.424 334.001 841.992C332.294 839.56 331.782 836.296 332.465 832.2L333.937 822.664C334.406 819.891 335.281 817.501 336.561 815.496C337.841 813.491 339.441 811.933 341.361 810.824C343.281 809.715 345.414 809.16 347.761 809.16C350.662 809.16 352.817 809.992 354.225 811.656C355.676 813.277 356.166 815.517 355.697 818.376L354.225 816.52H356.017L356.913 809.8H364.913L359.345 845H351.473L352.561 838.28H350.833L352.881 836.424C352.412 839.283 351.196 841.544 349.233 843.208C347.27 844.829 344.838 845.64 341.937 845.64ZM345.905 838.728C347.91 838.728 349.574 838.131 350.897 836.936C352.22 835.699 353.052 833.992 353.393 831.816L354.801 822.984C355.185 820.808 354.886 819.123 353.905 817.928C352.924 816.691 351.43 816.072 349.425 816.072C347.377 816.072 345.692 816.669 344.369 817.864C343.089 819.059 342.278 820.765 341.937 822.984L340.529 831.816C340.145 834.035 340.422 835.741 341.361 836.936C342.3 838.131 343.814 838.728 345.905 838.728ZM388.504 845C385.005 845 382.36 843.955 380.568 841.864C378.819 839.773 378.221 837.021 378.776 833.608L383.192 805.512H372.44L373.592 798.28H392.344L386.776 833.608C386.563 834.888 386.755 835.912 387.352 836.68C387.992 837.405 388.931 837.768 390.168 837.768H401.048L399.96 845H388.504ZM421.695 845.64C418.708 845.64 416.212 845.064 414.207 843.912C412.202 842.76 410.751 841.16 409.855 839.112C409.002 837.021 408.788 834.589 409.215 831.816L410.623 822.984C411.092 820.211 412.095 817.8 413.631 815.752C415.167 813.661 417.108 812.04 419.455 810.888C421.844 809.736 424.532 809.16 427.519 809.16C430.463 809.16 432.938 809.736 434.943 810.888C436.948 812.04 438.378 813.661 439.231 815.752C440.127 817.8 440.34 820.211 439.871 822.984L438.847 829.32H417.343L416.895 831.816C416.554 834.291 416.852 836.168 417.791 837.448C418.772 838.685 420.436 839.304 422.783 839.304C424.575 839.304 426.047 839.005 427.199 838.408C428.394 837.768 429.226 836.851 429.695 835.656H437.631C436.906 837.661 435.754 839.411 434.175 840.904C432.639 842.397 430.804 843.571 428.671 844.424C426.538 845.235 424.212 845.64 421.695 845.64ZM431.871 824.84L432.191 822.92C432.575 820.488 432.298 818.632 431.359 817.352C430.42 816.029 428.799 815.368 426.495 815.368C424.191 815.368 422.335 816.029 420.927 817.352C419.562 818.675 418.687 820.552 418.303 822.984L418.111 824.328L432.575 824.2L431.871 824.84ZM460.07 845.64C457.083 845.64 454.587 845.064 452.582 843.912C450.577 842.76 449.126 841.16 448.23 839.112C447.377 837.021 447.163 834.589 447.59 831.816L448.998 822.984C449.467 820.211 450.47 817.8 452.006 815.752C453.542 813.661 455.483 812.04 457.83 810.888C460.219 809.736 462.907 809.16 465.894 809.16C468.838 809.16 471.313 809.736 473.318 810.888C475.323 812.04 476.753 813.661 477.606 815.752C478.502 817.8 478.715 820.211 478.246 822.984L477.222 829.32H455.718L455.27 831.816C454.929 834.291 455.227 836.168 456.166 837.448C457.147 838.685 458.811 839.304 461.158 839.304C462.95 839.304 464.422 839.005 465.574 838.408C466.769 837.768 467.601 836.851 468.07 835.656H476.006C475.281 837.661 474.129 839.411 472.55 840.904C471.014 842.397 469.179 843.571 467.046 844.424C464.913 845.235 462.587 845.64 460.07 845.64ZM470.246 824.84L470.566 822.92C470.95 820.488 470.673 818.632 469.734 817.352C468.795 816.029 467.174 815.368 464.87 815.368C462.566 815.368 460.71 816.029 459.302 817.352C457.937 818.675 457.062 820.552 456.678 822.984L456.486 824.328L470.95 824.2L470.246 824.84ZM487.181 856.52L488.269 849.864H498.701C500.493 849.864 501.901 849.416 502.925 848.52C503.992 847.667 504.674 846.429 504.973 844.808L505.357 842.184L506.573 835.592H504.781L506.829 833.864C506.317 836.723 505.101 838.963 503.181 840.584C501.261 842.163 498.872 842.952 496.013 842.952C492.429 842.952 489.762 841.736 488.013 839.304C486.264 836.872 485.73 833.587 486.413 829.448L487.501 822.6C487.928 819.869 488.781 817.501 490.061 815.496C491.341 813.491 492.941 811.933 494.861 810.824C496.824 809.715 498.978 809.16 501.325 809.16C504.226 809.16 506.381 809.971 507.789 811.592C509.24 813.171 509.73 815.389 509.261 818.248L507.725 816.52H509.517L510.413 809.8H518.413L512.845 845C512.248 848.541 510.605 851.336 507.917 853.384C505.272 855.475 501.901 856.52 497.805 856.52H487.181ZM499.789 836.04C501.837 836.04 503.522 835.443 504.845 834.248C506.168 833.011 507.021 831.304 507.405 829.128L508.301 822.984C508.685 820.808 508.386 819.123 507.405 817.928C506.466 816.691 504.994 816.072 502.989 816.072C500.898 816.072 499.213 816.669 497.933 817.864C496.653 819.059 495.821 820.765 495.437 822.984L494.477 829.128C494.136 831.347 494.413 833.053 495.309 834.248C496.248 835.443 497.741 836.04 499.789 836.04ZM522.612 845L530.036 798.28H538.036L536.18 809.8L534.9 816.52H537.076L534.644 818.376C535.113 815.475 536.308 813.213 538.228 811.592C540.191 809.971 542.644 809.16 545.588 809.16C549.044 809.16 551.625 810.312 553.332 812.616C555.039 814.92 555.572 818.013 554.932 821.896L551.284 845H543.284L546.804 822.728C547.145 820.595 546.847 818.952 545.908 817.8C544.969 816.648 543.519 816.072 541.556 816.072C539.551 816.072 537.887 816.669 536.564 817.864C535.284 819.059 534.452 820.765 534.068 822.984L530.612 845H522.612ZM575.131 845.64C570.651 845.64 567.323 844.403 565.147 841.928C563.014 839.411 562.288 835.997 562.971 831.688L566.427 809.8H574.427L570.971 831.624C570.63 833.885 570.907 835.635 571.803 836.872C572.742 838.067 574.214 838.664 576.219 838.664C578.224 838.664 579.888 838.067 581.211 836.872C582.576 835.635 583.43 833.885 583.771 831.624L587.227 809.8H595.227L591.771 831.688C591.344 834.547 590.363 837.021 588.827 839.112C587.334 841.203 585.414 842.824 583.067 843.976C580.72 845.085 578.075 845.64 575.131 845.64ZM610.562 845.64C607.021 845.64 604.397 844.424 602.69 841.992C600.983 839.56 600.45 836.296 601.09 832.2L602.562 822.664C602.989 819.891 603.842 817.501 605.122 815.496C606.445 813.491 608.066 811.933 609.986 810.824C611.906 809.715 614.039 809.16 616.386 809.16C619.287 809.16 621.442 809.992 622.85 811.656C624.301 813.277 624.791 815.517 624.322 818.376L622.85 816.52H624.642L625.794 808.136L627.394 798.28H635.394L627.97 845H620.098L621.186 838.28H619.458L621.506 836.424C621.037 839.283 619.821 841.544 617.858 843.208C615.895 844.829 613.463 845.64 610.562 845.64ZM614.53 838.728C616.535 838.728 618.199 838.131 619.522 836.936C620.845 835.699 621.677 833.992 622.018 831.816L623.426 822.984C623.81 820.808 623.511 819.123 622.53 817.928C621.549 816.691 620.055 816.072 618.05 816.072C616.002 816.072 614.317 816.669 612.994 817.864C611.714 819.059 610.903 820.765 610.562 822.984L609.154 831.816C608.77 834.035 609.047 835.741 609.986 836.936C610.925 838.131 612.439 838.728 614.53 838.728ZM648.937 845.64C645.396 845.64 642.772 844.424 641.065 841.992C639.358 839.56 638.825 836.296 639.465 832.2L640.937 822.664C641.364 819.891 642.217 817.501 643.497 815.496C644.82 813.491 646.441 811.933 648.361 810.824C650.281 809.715 652.414 809.16 654.761 809.16C657.662 809.16 659.817 809.992 661.225 811.656C662.676 813.277 663.166 815.517 662.697 818.376L661.225 816.52H663.017L664.169 808.136L665.769 798.28H673.769L666.345 845H658.473L659.561 838.28H657.833L659.881 836.424C659.412 839.283 658.196 841.544 656.233 843.208C654.27 844.829 651.838 845.64 648.937 845.64ZM652.905 838.728C654.91 838.728 656.574 838.131 657.897 836.936C659.22 835.699 660.052 833.992 660.393 831.816L661.801 822.984C662.185 820.808 661.886 819.123 660.905 817.928C659.924 816.691 658.43 816.072 656.425 816.072C654.377 816.072 652.692 816.669 651.369 817.864C650.089 819.059 649.278 820.765 648.937 822.984L647.529 831.816C647.145 834.035 647.422 835.741 648.361 836.936C649.3 838.131 650.814 838.728 652.905 838.728ZM675.92 845L677.072 837.704H689.36L692.688 817.032H681.936L683.088 809.8H701.392L697.04 837.704H707.92L706.768 845H675.92ZM698.064 803.912C696.443 803.912 695.227 803.507 694.416 802.696C693.605 801.843 693.307 800.712 693.52 799.304C693.776 797.896 694.437 796.787 695.504 795.976C696.571 795.123 697.915 794.696 699.536 794.696C701.115 794.696 702.309 795.123 703.12 795.976C703.973 796.787 704.272 797.896 704.016 799.304C703.803 800.712 703.163 801.843 702.096 802.696C701.029 803.507 699.685 803.912 698.064 803.912ZM714.487 845L720.055 809.8H727.863L726.775 816.52H728.951L726.519 818.376C726.988 815.475 728.183 813.213 730.103 811.592C732.066 809.971 734.519 809.16 737.463 809.16C740.919 809.16 743.5 810.312 745.207 812.616C746.914 814.92 747.447 818.013 746.807 821.896L743.159 845H735.159L738.679 822.728C739.02 820.595 738.722 818.952 737.783 817.8C736.844 816.648 735.394 816.072 733.431 816.072C731.426 816.072 729.762 816.669 728.439 817.864C727.159 819.059 726.327 820.765 725.943 822.984L722.487 845H714.487ZM791.173 845L798.597 798.28H806.597L803.589 817.16H808.965L820.869 798.28H829.637L815.429 821.064L822.725 845H814.085L808.197 824.456H802.437L799.173 845H791.173ZM840.812 845.64C837.271 845.64 834.625 844.424 832.876 841.992C831.169 839.56 830.657 836.296 831.34 832.2L832.812 822.664C833.281 819.891 834.156 817.501 835.436 815.496C836.716 813.491 838.316 811.933 840.236 810.824C842.156 809.715 844.289 809.16 846.636 809.16C849.537 809.16 851.692 809.992 853.1 811.656C854.551 813.277 855.041 815.517 854.572 818.376L853.1 816.52H854.892L855.788 809.8H863.788L858.22 845H850.348L851.436 838.28H849.708L851.756 836.424C851.287 839.283 850.071 841.544 848.108 843.208C846.145 844.829 843.713 845.64 840.812 845.64ZM844.78 838.728C846.785 838.728 848.449 838.131 849.772 836.936C851.095 835.699 851.927 833.992 852.268 831.816L853.676 822.984C854.06 820.808 853.761 819.123 852.78 817.928C851.799 816.691 850.305 816.072 848.3 816.072C846.252 816.072 844.567 816.669 843.244 817.864C841.964 819.059 841.153 820.765 840.812 822.984L839.404 831.816C839.02 834.035 839.297 835.741 840.236 836.936C841.175 838.131 842.689 838.728 844.78 838.728ZM880.659 845.64C876.606 845.64 873.512 844.701 871.379 842.824C869.246 840.947 868.35 838.472 868.691 835.4H876.691C876.606 836.509 877.011 837.405 877.907 838.088C878.846 838.771 880.126 839.112 881.747 839.112H884.499C886.462 839.112 887.998 838.728 889.107 837.96C890.259 837.192 890.92 836.147 891.091 834.824C891.304 833.587 891.027 832.605 890.259 831.88C889.534 831.112 888.275 830.6 886.483 830.344L882.259 829.704C878.334 829.149 875.539 828.125 873.875 826.632C872.254 825.096 871.678 822.749 872.147 819.592C872.659 816.307 874.174 813.747 876.691 811.912C879.208 810.077 882.622 809.16 886.931 809.16H889.363C893.288 809.16 896.275 810.056 898.323 811.848C900.371 813.597 901.246 815.944 900.947 818.888H892.947C892.99 817.949 892.606 817.181 891.795 816.584C890.984 815.987 889.811 815.688 888.275 815.688H885.843C884.008 815.688 882.622 816.029 881.683 816.712C880.744 817.352 880.168 818.312 879.955 819.592C879.784 820.787 879.998 821.704 880.595 822.344C881.192 822.984 882.302 823.432 883.923 823.688L888.339 824.328C892.435 824.883 895.358 825.971 897.107 827.592C898.856 829.171 899.475 831.56 898.963 834.76C898.408 838.173 896.808 840.84 894.163 842.76C891.56 844.68 887.998 845.64 883.475 845.64H880.659ZM906.362 845L913.786 798.28H921.786L919.93 809.8L918.65 816.52H920.826L918.394 818.376C918.863 815.475 920.058 813.213 921.978 811.592C923.941 809.971 926.394 809.16 929.338 809.16C932.794 809.16 935.375 810.312 937.082 812.616C938.789 814.92 939.322 818.013 938.682 821.896L935.034 845H927.034L930.554 822.728C930.895 820.595 930.597 818.952 929.658 817.8C928.719 816.648 927.269 816.072 925.306 816.072C923.301 816.072 921.637 816.669 920.314 817.864C919.034 819.059 918.202 820.765 917.818 822.984L914.362 845H906.362ZM944.545 845L945.697 837.704H957.985L961.313 817.032H950.561L951.713 809.8H970.017L965.665 837.704H976.545L975.393 845H944.545ZM966.689 803.912C965.068 803.912 963.852 803.507 963.041 802.696C962.23 801.843 961.932 800.712 962.145 799.304C962.401 797.896 963.062 796.787 964.129 795.976C965.196 795.123 966.54 794.696 968.161 794.696C969.74 794.696 970.934 795.123 971.745 795.976C972.598 796.787 972.897 797.896 972.641 799.304C972.428 800.712 971.788 801.843 970.721 802.696C969.654 803.507 968.31 803.912 966.689 803.912ZM977.48 856.52L978.568 849.864H985.224C986.973 849.864 988.36 849.416 989.384 848.52C990.451 847.667 991.112 846.429 991.368 844.808L995.144 820.936H985.416L986.568 813.704H996.296L997.064 808.904C997.405 806.728 998.173 804.851 999.368 803.272C1000.56 801.693 1002.1 800.477 1003.98 799.624C1005.9 798.728 1008.05 798.28 1010.44 798.28H1021.06L1019.98 805.32H1009.48C1008.24 805.32 1007.24 805.64 1006.47 806.28C1005.7 806.92 1005.21 807.859 1005 809.096L1004.3 813.704H1017.8L1016.65 820.936H1003.14L999.304 845C998.792 848.541 997.192 851.336 994.504 853.384C991.816 855.475 988.424 856.52 984.328 856.52H977.48Z" fill="#78716C"/>
<path d="M66 759L1020 759" stroke="#78716C" stroke-width="5" stroke-linecap="round"/>
<path d="M66 885L1020 885" stroke="#78716C" stroke-width="5" stroke-linecap="round"/>
</svg>
